<svg version="1.1" xmlns="http://www.w3.org/2000/svg" viewBox="0 0 1161 779" width="1161" height="779">
  <!-- svg-source:excalidraw -->
  
  <defs>
    <style>
      @font-face {
        font-family: "Virgil";
        src: url("https://excalidraw.com/Virgil.woff2");
      }
      @font-face {
        font-family: "Cascadia";
        src: url("https://excalidraw.com/Cascadia.woff2");
      }
    </style>
  </defs>
  <g transform="translate(453 102) rotate(0 40.5 12.5)"><text x="0" y="18" font-family="Virgil, Segoe UI Emoji" font-size="20px" fill="#000000" text-anchor="start" style="white-space: pre;" direction="ltr">Contact</text></g><g transform="translate(562 101.5) rotate(0 41.5 12.5)"><text x="41.5" y="18" font-family="Virgil, Segoe UI Emoji" font-size="20px" fill="#000000" text-anchor="middle" style="white-space: pre;" direction="ltr">Projects</text></g><g transform="translate(684 102) rotate(0 28 12.5)"><text x="0" y="18" font-family="Virgil, Segoe UI Emoji" font-size="20px" fill="#000000" text-anchor="start" style="white-space: pre;" direction="ltr">About</text></g><g transform="translate(771 104) rotate(0 20.5 12.5)"><text x="0" y="18" font-family="Virgil, Segoe UI Emoji" font-size="20px" fill="#000000" text-anchor="start" style="white-space: pre;" direction="ltr">Blog</text></g><g transform="translate(884 10) rotate(0 66.5 12.5)"><text x="0" y="18" font-family="Virgil, Segoe UI Emoji" font-size="20px" fill="#000000" text-anchor="start" style="white-space: pre;" direction="ltr">Header sticks</text></g><g transform="translate(11 69) rotate(0 426 42.5)"><path d="M1.0477219641208648 -1.413069921731949 C340.2833122953773 8.064735779166224, 678.6151001363994 6.0054891437292115, 851.5577525198461 -0.528114515542984 M0.5181847542524338 0.4962725192308426 C180.58050275295977 6.068732384204866, 359.94330598115926 5.813228443622591, 852.4931362122298 -0.6218994587659836 M851.4017017036678 -0.4570622593164444 C851.7999349150808 19.78142429701984, 853.0232239279898 41.25964168831706, 850.6413929611446 87.6796274036169 M850.2159051820637 -0.040956608951091766 C850.550877640769 19.569494972005486, 853.3224004011603 33.370261799544096, 853.2338426038624 83.81633103638887 M850.614709955454 86.06425971388816 C634.1621584311129 84.76318259727955, 416.2515075415373 85.59696574699879, 1.2349089682102203 85.69080447554589 M852.7407912224533 85.3330990344286 C670.3573101416231 80.67918299269675, 486.99833772778516 80.93331650328635, -0.3906110793352127 84.2125894099474 M-1.8519403785467148 81.98598717153072 C-3.0852912399917845 51.49648936279118, 0.22622409127652632 22.804339576512568, -3.003820165991783 2.596767410635948 M0.544256679713726 84.81418646126986 C0.18598502762615676 66.22072828374803, -0.09026748053729539 49.04658925905824, 1.9969932958483696 0.8633838966488838" stroke="#000000" stroke-width="1" fill="none"></path></g><g transform="translate(10 165) rotate(0 428 302)"><path d="M-0.535961240530014 0.6149583756923676 C290.63191210925584 2.880105259418488, 576.9793814063073 3.196414043903351, 855.9683991491795 0.9953300416469575 M-0.27022114098072053 -0.6446962803602219 C298.20540893673893 6.297052564978601, 596.7663875252008 6.480382242560387, 855.9941376656294 0.21925759613513948 M857.1340714514256 0.3630317628383637 C856.7879504691363 165.3857267931104, 855.4781754981279 328.4865407198668, 857.3639262259006 605.2828504502774 M856.7056008309125 -0.7422910183668137 C857.0016143054962 229.25107189565898, 857.3808136196137 458.8778851270676, 856.7089214295149 603.5463241130113 M856.8488856375218 604.5586088120938 C620.8012372404337 596.853590376854, 383.2663879156113 598.328163321495, -1.2135386407375337 604.476272958517 M855.7298816651106 603.5178565531969 C525.8527184605599 610.6325142401457, 195.94117720425126 610.0084891813993, -0.3705117255449295 603.8284962207078 M1.1516453802585602 604.6741504609585 C-1.1775011316537864 442.6738697335124, -2.0484699503183372 280.0872547775507, 0.43541861176490787 0.4918085038661957 M-0.4580231696367264 603.5635784655809 C-0.06683123040199268 450.09217857569456, -0.8741248362064361 294.889580565691, 0.41706866919994356 -0.47826904952526095" stroke="#000000" stroke-width="1" fill="none"></path></g><g><g transform="translate(884 286) rotate(0 76.03027731195084 24.99612518295646)"><path d="M2.4024663791060448 -0.9454141721129417 C26.387721699972946 7.514179394145806, 121.60479439347982 41.49683433125416, 146.31249793618917 50.18787778764963 M0.262138199955225 -3.926949961334467 C24.94445064241687 5.083626771618922, 126.7956066975494 45.54423074151079, 151.7984164239466 53.91920032724738" stroke="#000000" stroke-width="1" fill="none"></path></g><g transform="translate(884 286) rotate(0 76.03027731195084 24.99612518295646)"><path d="M120.4483257394266 51.33510736069599 C133.63887908522395 57.08173792529686, 146.65824766732638 54.02849210993127, 149.94585779622196 53.06168143078685 M123.23847413919685 54.58851267090956 C131.22556770265734 53.74582608751548, 138.1657343127304 52.62242008477413, 152.34268968865274 54.533960957080126" stroke="#000000" stroke-width="1" fill="none"></path></g><g transform="translate(884 286) rotate(0 76.03027731195084 24.99612518295646)"><path d="M127.5783190091743 32.092363316272596 C137.94018413556273 45.38421310247056, 148.209166468911 49.75383244360333, 149.94585779622196 53.06168143078685 M130.36846740894455 35.34576862648616 C136.63007683734617 39.76056346032895, 141.66201679768167 43.787164703098874, 152.34268968865274 54.533960957080126" stroke="#000000" stroke-width="1" fill="none"></path></g></g><g><g transform="translate(853 75) rotate(300.796349919002 44.79621883206062 5.468304500430818)"><path d="M-2.487517704069614 0.23290685564279556 C11.715990688900154 1.8532105659445126, 72.03309542586406 7.482635217408339, 86.84682873338461 9.269789208471774 M1.3575913287699226 -2.108968947082758 C16.286160891999803 0.05908438906073599, 77.00403305227559 11.612799727767706, 92.07995536819101 13.045577947944404" stroke="#000000" stroke-width="1" fill="none"></path></g><g transform="translate(853 75) rotate(300.796349919002 44.79621883206062 5.468304500430818)"><path d="M63.016217210004044 15.95693959076517 C73.61403874199644 13.689776412450513, 86.54847014066453 14.565595837098245, 88.90468527272344 11.582799632996322 M64.54296958507032 17.82083641518467 C70.8145536754553 19.218111408950016, 78.06701957382242 17.480052343127, 91.08805552765727 13.048375544101" stroke="#000000" stroke-width="1" fill="none"></path></g><g transform="translate(853 75) rotate(300.796349919002 44.79621883206062 5.468304500430818)"><path d="M66.04510740938201 -4.339509028290129 C75.49286054883414 0.6069282243517868, 87.34275688097055 8.750165351346343, 88.90468527272344 11.582799632996322 M67.57185978444829 -2.4756122038706305 C72.84729225756081 4.13777403623021, 79.32527402587237 7.589496150053391, 91.08805552765727 13.048375544101" stroke="#000000" stroke-width="1" fill="none"></path></g></g><g transform="translate(972 353) rotate(0 89.5 12.5)"><text x="0" y="18" font-family="Virgil, Segoe UI Emoji" font-size="20px" fill="#000000" text-anchor="start" style="white-space: pre;" direction="ltr">Background sticks</text></g></svg>